<svg version="1.1" xmlns="http://www.w3.org/2000/svg" width="70" height="67">
<path d="M0 0 C0.82306641 0.32097656 1.64613281 0.64195313 2.49414062 0.97265625 C8.54431335 3.35681335 8.54431335 3.35681335 9.6875 4.5 C9.64625 5.53125 9.605 6.5625 9.5625 7.625 C9.91329666 10.76917749 10.63401636 11.4571456 13.1640625 13.484375 C15.96626615 15.23665739 18.80453164 16.88517278 21.6875 18.5 C22.6875 19.5 22.6875 19.5 22.90625 22.31640625 C22.82759184 27.81264532 21.41214448 33.10533174 20.1875 38.4375 C19.94902344 39.50291016 19.71054688 40.56832031 19.46484375 41.66601562 C18.87899341 44.27890813 18.28638542 46.89007007 17.6875 49.5 C0.27737415 50.44952579 -16.90237415 50.44952579 -34.3125 49.5 C-35.32392195 46.27429922 -36.31958653 43.04394135 -37.3125 39.8125 C-37.74175781 38.44448242 -37.74175781 38.44448242 -38.1796875 37.04882812 C-38.45039062 36.16259766 -38.72109375 35.27636719 -39 34.36328125 C-39.25136719 33.55157471 -39.50273438 32.73986816 -39.76171875 31.90356445 C-40.34450496 29.36033295 -40.40962888 27.10022093 -40.3125 24.5 C-39.06358386 24.01801537 -37.81331192 23.53954323 -36.5625 23.0625 C-35.86640625 22.79566406 -35.1703125 22.52882813 -34.453125 22.25390625 C-32.42190997 21.53853307 -30.4089709 20.98634348 -28.3125 20.5 C-28.50070313 19.42621094 -28.68890625 18.35242188 -28.8828125 17.24609375 C-30.09746038 8.65183 -30.09746038 8.65183 -29.3125 4.5 C-26.52926569 0.98461895 -23.36439159 -0.69512153 -19.3125 -2.5 C-18.66667969 -2.90476562 -18.02085938 -3.30953125 -17.35546875 -3.7265625 C-11.78178587 -5.83667571 -5.2085529 -2.08007967 0 0 Z M-12.3125 -1.5 C-12.3125 14.67 -12.3125 30.84 -12.3125 47.5 C-10.0025 47.5 -7.6925 47.5 -5.3125 47.5 C-4.9825 37.6 -4.6525 27.7 -4.3125 17.5 C-1.0125 16.18 2.2875 14.86 5.6875 13.5 C7.10327477 12.31575674 7.10327477 12.31575674 6.75 8.9375 C6.7190625 7.2359375 6.7190625 7.2359375 6.6875 5.5 C3.8975561 4.32905995 1.10571403 3.16309073 -1.6875 2 C-2.4815625 1.66613281 -3.275625 1.33226562 -4.09375 0.98828125 C-4.85429688 0.67246094 -5.61484375 0.35664063 -6.3984375 0.03125 C-7.1001709 -0.26201172 -7.8019043 -0.55527344 -8.52490234 -0.85742188 C-10.30958561 -1.61275781 -10.30958561 -1.61275781 -12.3125 -1.5 Z M-21.9375 2.5 C-23.16339844 3.3353125 -23.16339844 3.3353125 -24.4140625 4.1875 C-25.04054688 4.620625 -25.66703125 5.05375 -26.3125 5.5 C-26.08476176 8.22316787 -25.84425162 10.94396315 -25.58203125 13.6640625 C-25.38153578 15.77362356 -25.2134773 17.88631787 -25.0625 20 C-24.815 20.825 -24.5675 21.65 -24.3125 22.5 C-23.50941406 22.82613281 -22.70632812 23.15226562 -21.87890625 23.48828125 C-18.2842039 26.30604641 -18.365562 28.83267456 -17.80664062 33.22851562 C-17.70544922 34.20498047 -17.60425781 35.18144531 -17.5 36.1875 C-17.37947266 37.17556641 -17.25894531 38.16363281 -17.13476562 39.18164062 C-16.84034416 41.61945034 -16.56715667 44.05776959 -16.3125 46.5 C-15.9825 46.5 -15.6525 46.5 -15.3125 46.5 C-15.3125 30.99 -15.3125 15.48 -15.3125 -0.5 C-18.18527077 -0.5 -19.5892056 0.88974098 -21.9375 2.5 Z M11.6875 16.5 C11.20468413 19.79114185 10.72694041 23.083002 10.25 26.375 C10.11529297 27.2928125 9.98058594 28.210625 9.84179688 29.15625 C8.96074528 35.25914396 8.24748749 41.3593324 7.6875 47.5 C9.9975 47.5 12.3075 47.5 14.6875 47.5 C15.70184396 43.50348481 16.69994318 39.50321812 17.6875 35.5 C17.90019531 34.64535156 18.11289062 33.79070313 18.33203125 32.91015625 C19.8938104 26.75074395 19.8938104 26.75074395 19.6875 20.5 C16.12725665 17.42386364 16.12725665 17.42386364 11.6875 16.5 Z M-2.3125 19.5 C-2.3125 28.74 -2.3125 37.98 -2.3125 47.5 C-0.6625 47.5 0.9875 47.5 2.6875 47.5 C3.19340367 43.45904957 3.69117562 39.41713726 4.1875 35.375 C4.40212891 33.66183594 4.40212891 33.66183594 4.62109375 31.9140625 C4.82412109 30.25117187 4.82412109 30.25117187 5.03125 28.5546875 C5.15693359 27.53874512 5.28261719 26.52280273 5.41210938 25.47607422 C5.69065378 22.4659179 5.73476727 19.52116606 5.6875 16.5 C2.86760841 16.3509288 2.86760841 16.3509288 -2.3125 19.5 Z M-35.5625 25.4375 C-36.14 25.788125 -36.7175 26.13875 -37.3125 26.5 C-36.73601925 33.85012956 -34.60203836 40.51424576 -32.3125 47.5 C-30.3325 47.5 -28.3525 47.5 -26.3125 47.5 C-27.3025 40.24 -28.2925 32.98 -29.3125 25.5 C-33.07229645 24.13716826 -33.07229645 24.13716826 -35.5625 25.4375 Z M-23.3125 25.5 C-22.82422287 32.97834967 -21.97844452 40.18925318 -20.3125 47.5 C-19.6525 47.5 -18.9925 47.5 -18.3125 47.5 C-18.56148882 44.39367452 -18.84044177 41.29075312 -19.125 38.1875 C-19.19525391 37.30642578 -19.26550781 36.42535156 -19.33789062 35.51757812 C-19.41845703 34.67001953 -19.49902344 33.82246094 -19.58203125 32.94921875 C-19.65010986 32.16893311 -19.71818848 31.38864746 -19.78833008 30.5847168 C-20.4122659 28.10321329 -21.37905277 27.12445919 -23.3125 25.5 Z M-26.3125 29.5 C-25.3125 32.5 -25.3125 32.5 -25.3125 32.5 Z M-25.3125 34.5 C-25.35375 35.7375 -25.395 36.975 -25.4375 38.25 C-25.46070313 38.94609375 -25.48390625 39.6421875 -25.5078125 40.359375 C-25.40498991 42.92184168 -25.40498991 42.92184168 -23.3125 46.5 C-23.6425 42.54 -23.9725 38.58 -24.3125 34.5 C-24.6425 34.5 -24.9725 34.5 -25.3125 34.5 Z " fill="#F3E8C0" transform="translate(44.3125,12.5)"/>
<path d="M0 0 C0 16.83 0 33.66 0 51 C0.66 51.33 1.32 51.66 2 52 C-5.59 52 -13.18 52 -21 52 C-21.99 48.803125 -22.98 45.60625 -24 42.3125 C-24.31324219 41.31387939 -24.62648438 40.31525879 -24.94921875 39.28637695 C-25.19285156 38.48675537 -25.43648437 37.68713379 -25.6875 36.86328125 C-25.93886719 36.05157471 -26.19023437 35.23986816 -26.44921875 34.40356445 C-27.03200496 31.86033295 -27.09712888 29.60022093 -27 27 C-25.75108386 26.51801537 -24.50081192 26.03954323 -23.25 25.5625 C-22.55390625 25.29566406 -21.8578125 25.02882813 -21.140625 24.75390625 C-19.10940997 24.03853307 -17.0964709 23.48634348 -15 23 C-15.18820312 21.92621094 -15.37640625 20.85242188 -15.5703125 19.74609375 C-17.15457727 8.55254779 -17.15457727 8.55254779 -14.05078125 4.37890625 C-8.95690784 0.71649502 -6.47937443 0 0 0 Z M-8.625 5 C-9.85089844 5.8353125 -9.85089844 5.8353125 -11.1015625 6.6875 C-11.72804688 7.120625 -12.35453125 7.55375 -13 8 C-12.77226176 10.72316787 -12.53175162 13.44396315 -12.26953125 16.1640625 C-12.06903578 18.27362356 -11.9009773 20.38631787 -11.75 22.5 C-11.5025 23.325 -11.255 24.15 -11 25 C-10.19691406 25.32613281 -9.39382812 25.65226562 -8.56640625 25.98828125 C-4.9717039 28.80604641 -5.053062 31.33267456 -4.49414062 35.72851562 C-4.39294922 36.70498047 -4.29175781 37.68144531 -4.1875 38.6875 C-4.06697266 39.67556641 -3.94644531 40.66363281 -3.82226562 41.68164062 C-3.52784416 44.11945034 -3.25465667 46.55776959 -3 49 C-2.67 49 -2.34 49 -2 49 C-2 33.49 -2 17.98 -2 2 C-4.87277077 2 -6.2767056 3.38974098 -8.625 5 Z M-22.25 27.9375 C-22.8275 28.288125 -23.405 28.63875 -24 29 C-23.42351925 36.35012956 -21.28953836 43.01424576 -19 50 C-17.02 50 -15.04 50 -13 50 C-13.99 42.74 -14.98 35.48 -16 28 C-19.75979645 26.63716826 -19.75979645 26.63716826 -22.25 27.9375 Z M-10 28 C-9.51172287 35.47834967 -8.66594452 42.68925318 -7 50 C-6.34 50 -5.68 50 -5 50 C-5.24898882 46.89367452 -5.52794177 43.79075312 -5.8125 40.6875 C-5.88275391 39.80642578 -5.95300781 38.92535156 -6.02539062 38.01757812 C-6.10595703 37.17001953 -6.18652344 36.32246094 -6.26953125 35.44921875 C-6.33760986 34.66893311 -6.40568848 33.88864746 -6.47583008 33.0847168 C-7.0997659 30.60321329 -8.06655277 29.62445919 -10 28 Z M-13 32 C-12 35 -12 35 -12 35 Z M-12 37 C-12.04125 38.2375 -12.0825 39.475 -12.125 40.75 C-12.14820313 41.44609375 -12.17140625 42.1421875 -12.1953125 42.859375 C-12.09248991 45.42184168 -12.09248991 45.42184168 -10 49 C-10.33 45.04 -10.66 41.08 -11 37 C-11.33 37 -11.66 37 -12 37 Z " fill="#C8B591" transform="translate(31,10)"/>
<path d="M0 0 C3.16840906 1.08198253 6.26982488 2.31201082 9.375 3.5625 C10.20644531 3.89185547 11.03789063 4.22121094 11.89453125 4.56054688 C13.93184618 5.36844762 15.96684442 6.1817011 18 7 C18 9.64 18 12.28 18 15 C17.67 15 17.34 15 17 15 C17 13.02 17 11.04 17 9 C14.03 8.505 14.03 8.505 11 8 C6.38 6.02 1.76 4.04 -3 2 C-3 18.17 -3 34.34 -3 51 C-0.69 51 1.62 51 4 51 C4 41.1 4 31.2 4 21 C5.65 20.67 7.3 20.34 9 20 C8.34 20.66 7.68 21.32 7 22 C6.62677573 25.10756015 6.62677573 25.10756015 6.5859375 28.7578125 C6.56657135 29.42086395 6.5472052 30.08391541 6.5272522 30.76705933 C6.46744046 32.88624177 6.42106612 35.0054785 6.375 37.125 C6.33682155 38.56122169 6.29776989 39.99742045 6.2578125 41.43359375 C6.16173875 44.95551936 6.07771358 48.47761608 6 52 C7.98 52 9.96 52 12 52 C11.95875 50.72125 11.9175 49.4425 11.875 48.125 C11.85842217 42.91127144 12.81688642 38.05992328 14 33 C14.33 33 14.66 33 15 33 C15 37.95 15 42.9 15 48 C15.66 43.71 16.32 39.42 17 35 C17.33 35 17.66 35 18 35 C18.02692484 37.29160319 18.04636124 39.58329546 18.0625 41.875 C18.07410156 43.15117188 18.08570312 44.42734375 18.09765625 45.7421875 C18 49 18 49 17 51 C19.31 51 21.62 51 24 51 C24 50.34 24 49.68 24 49 C24.66 49 25.32 49 26 49 C26 50.32 26 51.64 26 53 C21.93829842 53.22647063 17.87572892 53.42799496 13.8125 53.625 C12.08676758 53.72167969 12.08676758 53.72167969 10.32617188 53.8203125 C9.21435547 53.871875 8.10253906 53.9234375 6.95703125 53.9765625 C5.93585205 54.02893066 4.91467285 54.08129883 3.86254883 54.13525391 C1 54 1 54 -4 52 C-4 35.17 -4 18.34 -4 1 C-5.32 0.67 -6.64 0.34 -8 0 C-5.01489787 -1.49255106 -3.25404302 -0.73821969 0 0 Z " fill="#ECE1BC" transform="translate(35,9)"/>
<path d="M0 0 C0 16.17 0 32.34 0 49 C-3.465 49.495 -3.465 49.495 -7 50 C-7.66 49.34 -8.32 48.68 -9 48 C-8.9765625 45.8359375 -8.9765625 45.8359375 -8.625 43.375 C-8.51414062 42.55773438 -8.40328125 41.74046875 -8.2890625 40.8984375 C-8.19367187 40.27195313 -8.09828125 39.64546875 -8 39 C-7.67 39 -7.34 39 -7 39 C-6.67 42.3 -6.34 45.6 -6 49 C-5.34 49 -4.68 49 -4 49 C-4.47373499 45.87415123 -4.95490951 42.74949284 -5.4375 39.625 C-5.57220703 38.73554687 -5.70691406 37.84609375 -5.84570312 36.9296875 C-6.04389648 35.65351562 -6.04389648 35.65351562 -6.24609375 34.3515625 C-6.42676392 33.17327881 -6.42676392 33.17327881 -6.61108398 31.97119141 C-6.92238238 29.93388316 -6.92238238 29.93388316 -8 28 C-8.66 28.99 -9.32 29.98 -10 31 C-10 29.02 -10 27.04 -10 25 C-12.70879335 23.64560332 -15.00933268 23.93498549 -18 24 C-16.68 23.34 -15.36 22.68 -14 22 C-14.18820312 20.92621094 -14.37640625 19.85242188 -14.5703125 18.74609375 C-16.15415584 7.54493301 -16.15415584 7.54493301 -13.015625 3.34375 C-8.06247507 -0.2318967 -6.19496141 -1.23899228 0 0 Z M-7.625 4 C-8.85089844 4.8353125 -8.85089844 4.8353125 -10.1015625 5.6875 C-10.72804688 6.120625 -11.35453125 6.55375 -12 7 C-11.77226176 9.72316787 -11.53175162 12.44396315 -11.26953125 15.1640625 C-11.06903578 17.27362356 -10.9009773 19.38631787 -10.75 21.5 C-10.5025 22.325 -10.255 23.15 -10 24 C-9.19691406 24.32613281 -8.39382812 24.65226562 -7.56640625 24.98828125 C-3.9717039 27.80604641 -4.053062 30.33267456 -3.49414062 34.72851562 C-3.39294922 35.70498047 -3.29175781 36.68144531 -3.1875 37.6875 C-3.06697266 38.67556641 -2.94644531 39.66363281 -2.82226562 40.68164062 C-2.52784416 43.11945034 -2.25465667 45.55776959 -2 48 C-1.67 48 -1.34 48 -1 48 C-1 32.49 -1 16.98 -1 1 C-3.87277077 1 -5.2767056 2.38974098 -7.625 4 Z " fill="#E8DFC6" transform="translate(30,11)"/>
<path d="M0 0 C4.00152021 1.37194978 7.07180003 2.90447432 10 6 C10.65677624 12.49770631 8.94802978 18.63270007 7.5 24.9375 C7.26152344 26.00291016 7.02304688 27.06832031 6.77734375 28.16601562 C6.19149341 30.77890813 5.59888542 33.39007007 5 36 C3.26346574 32.76291986 2.79995568 30.98983579 3.25 27.3125 C3.35699219 26.43722656 3.46398438 25.56195313 3.57421875 24.66015625 C4.0937159 21.41449058 4.82376699 18.24560507 5.58984375 15.05078125 C6.13103153 12.34484236 6.14094721 9.74847051 6 7 C2.535 5.02 2.535 5.02 -1 3 C-1.33 4.32 -1.66 5.64 -2 7 C-2.125 4.625 -2.125 4.625 -2 2 C-1.34 1.34 -0.68 0.68 0 0 Z " fill="#F6F3D1" transform="translate(57,26)"/>
<path d="M0 0 C4.875 1.875 4.875 1.875 6 3 C6.40602589 5.37688151 6.7546484 7.73515942 7.0625 10.125 C7.23910156 11.42695312 7.41570313 12.72890625 7.59765625 14.0703125 C7.97427127 17.74870773 8.07196124 21.30598965 8 25 C5.625 25.625 5.625 25.625 3 26 C2.34 25.34 1.68 24.68 1 24 C1.0234375 21.8359375 1.0234375 21.8359375 1.375 19.375 C1.48585938 18.55773437 1.59671875 17.74046875 1.7109375 16.8984375 C1.80632813 16.27195312 1.90171875 15.64546875 2 15 C2.33 15 2.66 15 3 15 C3.33 18.3 3.66 21.6 4 25 C4.66 25 5.32 25 6 25 C5.52626501 21.87415123 5.04509049 18.74949284 4.5625 15.625 C4.42779297 14.73554687 4.29308594 13.84609375 4.15429688 12.9296875 C4.02216797 12.07890625 3.89003906 11.228125 3.75390625 10.3515625 C3.63345947 9.56604004 3.5130127 8.78051758 3.38891602 7.97119141 C3.07761762 5.93388316 3.07761762 5.93388316 2 4 C1.34 4.99 0.68 5.98 0 7 C0 4.69 0 2.38 0 0 Z " fill="#DCCAA9" transform="translate(20,35)"/>
<path d="M0 0 C0.33 0 0.66 0 1 0 C1 6.93 1 13.86 1 21 C0.34 21.33 -0.32 21.66 -1 22 C-1.68729254 24.11846285 -1.68729254 24.11846285 -2.125 26.5625 C-2.29257812 27.38878906 -2.46015625 28.21507813 -2.6328125 29.06640625 C-2.75398438 29.70449219 -2.87515625 30.34257813 -3 31 C-3.33 31 -3.66 31 -4 31 C-4 22.75 -4 14.5 -4 6 C-3.34 5.67 -2.68 5.34 -2 5 C-1.27840576 3.35636866 -0.60648579 1.68949614 0 0 Z " fill="#F9F4D4" transform="translate(53,29)"/>
<path d="M0 0 C3.16840906 1.08198253 6.26982488 2.31201082 9.375 3.5625 C10.20644531 3.89185547 11.03789063 4.22121094 11.89453125 4.56054688 C13.93184618 5.36844762 15.96684442 6.1817011 18 7 C18 9.64 18 12.28 18 15 C17.67 15 17.34 15 17 15 C17 13.02 17 11.04 17 9 C16.16726562 8.89558594 15.33453125 8.79117187 14.4765625 8.68359375 C10.56251785 7.91397823 7.04093552 6.58510469 3.375 5.0625 C2.72015625 4.79759766 2.0653125 4.53269531 1.390625 4.25976562 C-1.80427304 2.95658353 -4.94458988 1.60525354 -8 0 C-5.01489787 -1.49255106 -3.25404302 -0.73821969 0 0 Z " fill="#E6DFBD" transform="translate(35,9)"/>
<path d="M0 0 C2 2 2 2 2.0625 4.4375 C2.041875 5.283125 2.02125 6.12875 2 7 C2.33 7.99 2.66 8.98 3 10 C2.96761864 11.97526322 2.93520382 13.95052593 2.90234375 15.92578125 C3.03927564 18.83421453 3.92550251 21.31375627 5 24 C1.7 24 -1.6 24 -5 24 C-5 23.67 -5 23.34 -5 23 C-3.02 23 -1.04 23 1 23 C0.649375 21.80375 0.29875 20.6075 -0.0625 19.375 C-1.54259424 12.90605663 -0.68798334 6.53584176 0 0 Z " fill="#DECFB1" transform="translate(17,37)"/>
<path d="M0 0 C0.78375 0.04125 1.5675 0.0825 2.375 0.125 C2.705 1.115 3.035 2.105 3.375 3.125 C2.385 3.125 1.395 3.125 0.375 3.125 C0.375 7.745 0.375 12.365 0.375 17.125 C-0.285 17.455 -0.945 17.785 -1.625 18.125 C-1.625 13.835 -1.625 9.545 -1.625 5.125 C-2.285 8.425 -2.945 11.725 -3.625 15.125 C-3.955 15.125 -4.285 15.125 -4.625 15.125 C-4.67886629 13.00027424 -4.71773071 10.87516348 -4.75 8.75 C-4.77320313 7.56664062 -4.79640625 6.38328125 -4.8203125 5.1640625 C-4.5707518 1.28089801 -3.97031482 0.18906261 0 0 Z " fill="#E9E0B6" transform="translate(54.625,24.875)"/>
<path d="M0 0 C0.33 0 0.66 0 1 0 C3.29612756 11.52164009 3.29612756 11.52164009 3 17 C0.36 17 -2.28 17 -5 17 C-3.68 16.34 -2.36 15.68 -1 15 C-1.33 11.7 -1.66 8.4 -2 5 C-1.34 5 -0.68 5 0 5 C0 3.35 0 1.7 0 0 Z " fill="#DECEB3" transform="translate(17,18)"/>
<path d="M0 0 C0.33 2.64 0.66 5.28 1 8 C-0.98 8.99 -0.98 8.99 -3 10 C-3 11.98 -3 13.96 -3 16 C-3.33 14.68 -3.66 13.36 -4 12 C-5.65 11.67 -7.3 11.34 -9 11 C-6 9 -6 9 -4 8 C-3.835 6.845 -3.67 5.69 -3.5 4.5 C-3.335 3.345 -3.17 2.19 -3 1 C-1 0 -1 0 0 0 Z " fill="#F4EFD2" transform="translate(54,17)"/>
<path d="M0 0 C4.875 1.875 4.875 1.875 6 3 C6.04063832 4.66617115 6.042721 6.33388095 6 8 C4.68 6.68 3.36 5.36 2 4 C1.34 4.99 0.68 5.98 0 7 C0 4.69 0 2.38 0 0 Z " fill="#E4D6BA" transform="translate(20,35)"/>
<path d="M0 0 C0.99 0.33 1.98 0.66 3 1 C3 1.66 3 2.32 3 3 C-1.05606165 2.53199289 -4.46588679 2.12046792 -8 0 C-5.11301479 -1.4434926 -3.10530768 -0.63373626 0 0 Z " fill="#DDD1AE" transform="translate(35,9)"/>
<path d="M0 0 C0 0.66 0 1.32 0 2 C-1.32 2.33 -2.64 2.66 -4 3 C-4 4.65 -4 6.3 -4 8 C-4.66 7.67 -5.32 7.34 -6 7 C-6.1875 4.625 -6.1875 4.625 -6 2 C-3 0 -3 0 0 0 Z " fill="#CBBDA0" transform="translate(21,15)"/>
<path d="M0 0 C0.33 0 0.66 0 1 0 C1.33 3.63 1.66 7.26 2 11 C1.01 11 0.02 11 -1 11 C-1.33 9.02 -1.66 7.04 -2 5 C-1.34 5 -0.68 5 0 5 C0 3.35 0 1.7 0 0 Z " fill="#EBDFC3" transform="translate(17,18)"/>
<path d="M0 0 C1 2 2 4 3 6 C-0.3 6 -3.6 6 -7 6 C-7 5.67 -7 5.34 -7 5 C-5.02 4.67 -3.04 4.34 -1 4 C-0.67 2.68 -0.34 1.36 0 0 Z " fill="#E1D1A4" transform="translate(19,55)"/>
<path d="M0 0 C-0.33 0.66 -0.66 1.32 -1 2 C-3.875 2.125 -3.875 2.125 -7 2 C-7.66 1.34 -8.32 0.68 -9 0 C-5.93109813 -1.53445094 -3.29905734 -0.54984289 0 0 Z " fill="#DDCBB1" transform="translate(15,36)"/>
</svg>
